<?xml version="1.0" standalone="no"?><!DOCTYPE svg PUBLIC "-//W3C//DTD SVG 1.1//EN" "http://www.w3.org/Graphics/SVG/1.1/DTD/svg11.dtd"><svg t="1578981468632" class="icon" viewBox="0 0 1024 1024" version="1.1" xmlns="http://www.w3.org/2000/svg" p-id="4604" xmlns:xlink="http://www.w3.org/1999/xlink" width="200" height="200"><defs><style type="text/css"></style></defs><path d="M524.4 40.2c-246.9 0-447 200.1-447 447s200.1 447 447 447 447-200.1 447-447-200.1-447-447-447zM812.2 775c-37.4 37.4-80.9 66.7-129.4 87.2-50.2 21.2-103.4 32-158.4 32s-108.3-10.8-158.4-32c-48.5-20.5-92-49.8-129.4-87.2s-66.7-80.9-87.2-129.4c-21.2-50.2-32-103.4-32-158.4s10.8-108.3 32-158.4c20.5-48.5 49.8-92 87.2-129.4 37.4-37.4 81-66.7 129.4-87.2 50.2-21.2 103.4-32 158.4-32s108.3 10.8 158.4 32c48.5 20.5 92 49.8 129.4 87.2 37.4 37.4 66.7 80.9 87.2 129.4 21.2 50.2 32 103.4 32 158.4s-10.8 108.3-32 158.4c-20.4 48.5-49.8 92-87.2 129.4z" fill="#bfbfbf" p-id="4605"></path><path d="M724.4 467.2h-180v-180c0-11-9-20-20-20s-20 9-20 20v180h-180c-11 0-20 9-20 20s9 20 20 20h180v180c0 11 9 20 20 20s20-9 20-20v-180h180c11 0 20-9 20-20s-8.9-20-20-20z" fill="#bfbfbf" p-id="4606"></path></svg>