<?xml version="1.0" standalone="no"?><!DOCTYPE svg PUBLIC "-//W3C//DTD SVG 1.1//EN" "http://www.w3.org/Graphics/SVG/1.1/DTD/svg11.dtd"><svg t="1577792999671" class="icon" viewBox="0 0 1024 1024" version="1.1" xmlns="http://www.w3.org/2000/svg" p-id="3337" xmlns:xlink="http://www.w3.org/1999/xlink" width="200" height="200"><defs><style type="text/css"></style></defs><path d="M25.5 617.4h973.2c14.1 0 25.5-11.4 25.5-25.5V446.5c0-14.1-11.4-25.5-25.5-25.5H25.5C11.4 421 0 432.4 0 446.5v145.4c0 14.1 11.4 25.5 25.5 25.5zM25.5 986.2h973.2c14.1 0 25.5-11.4 25.5-25.5V815.3c0-14.1-11.4-25.5-25.5-25.5H25.5C11.4 789.9 0 801.3 0 815.3v145.4c0 14.1 11.4 25.5 25.5 25.5zM0 68.4v145.4c0 14.1 11.4 25.5 25.5 25.5h973.2c14.1 0 25.5-11.4 25.5-25.5V68.4c0-14.1-11.4-25.5-25.5-25.5H25.5C11.4 42.9 0 54.3 0 68.4z" fill="#cdcdcd" p-id="3338"></path></svg>