<?xml version="1.0" standalone="no"?><!DOCTYPE svg PUBLIC "-//W3C//DTD SVG 1.1//EN" "http://www.w3.org/Graphics/SVG/1.1/DTD/svg11.dtd"><svg t="1577792954989" class="icon" viewBox="0 0 1024 1024" version="1.1" xmlns="http://www.w3.org/2000/svg" p-id="2751" xmlns:xlink="http://www.w3.org/1999/xlink" width="200" height="200"><defs><style type="text/css"></style></defs><path d="M29.436449 965.065029h965.003597a29.436449 29.436449 0 0 1 29.436449 29.436449 30.076372 30.076372 0 0 1-29.436449 29.436449H29.436449a30.076372 30.076372 0 0 1-29.436449-29.436449 29.436449 29.436449 0 0 1 29.436449-29.436449z" p-id="2752" fill="#cdcdcd"></path><path d="M869.015175 994.501478V29.497882A29.436449 29.436449 0 0 1 895.891933 0.061433a30.076372 30.076372 0 0 1 29.436449 29.436449v965.003596A30.076372 30.076372 0 0 1 895.891933 1023.937927a29.436449 29.436449 0 0 1-26.876758-29.436449z" p-id="2753" fill="#cdcdcd"></path><path d="M127.984562 0.061433h767.907371a30.076372 30.076372 0 0 1 29.436449 29.436449 29.436449 29.436449 0 0 1-29.436449 29.436449H127.984562a29.436449 29.436449 0 0 1-31.996141-29.436449A30.076372 30.076372 0 0 1 127.984562 0.061433z" p-id="2754" fill="#cdcdcd"></path><path d="M95.988421 994.501478V29.497882A30.076372 30.076372 0 0 1 127.984562 0.061433a29.436449 29.436449 0 0 1 29.436449 29.436449v965.003596A29.436449 29.436449 0 0 1 127.984562 1023.937927a30.076372 30.076372 0 0 1-31.996141-29.436449zM419.789363 285.467006H284.125727a29.436449 29.436449 0 0 1 0-58.872899h135.663636a29.436449 29.436449 0 0 1 0 58.872899zM739.750768 285.467006H604.087132a29.436449 29.436449 0 0 1 0-58.872899h135.663636a29.436449 29.436449 0 0 1 0 58.872899zM419.789363 541.436129H284.125727a29.436449 29.436449 0 0 1 0-58.872898h135.663636a29.436449 29.436449 0 0 1 0 58.872898zM739.750768 541.436129H604.087132a29.436449 29.436449 0 0 1 0-58.872898h135.663636a29.436449 29.436449 0 1 1 0 58.872898zM419.789363 797.405253H284.125727a29.436449 29.436449 0 0 1 0-58.872898h135.663636a29.436449 29.436449 0 1 1 0 58.872898zM739.750768 797.405253H604.087132a29.436449 29.436449 0 0 1 0-58.872898h135.663636a29.436449 29.436449 0 0 1 0 58.872898z" p-id="2755" fill="#cdcdcd"></path></svg>